<svg width="24" height="24" viewBox="0 0 24 24" fill="none" xmlns="http://www.w3.org/2000/svg">
<path d="M13.0271 2.00098C14.1525 2.00284 14.7228 2.00879 15.2156 2.02346L15.4097 2.02981C15.6339 2.03778 15.8551 2.04778 16.1218 2.06028C17.1859 2.10944 17.9118 2.27778 18.5493 2.52528C19.2084 2.77944 19.7651 3.12278 20.3209 3.67861C20.8759 4.23444 21.2193 4.79278 21.4743 5.45028C21.7209 6.08694 21.8893 6.81361 21.9393 7.87778C21.9512 8.14444 21.9608 8.36564 21.9687 8.58989L21.975 8.78397C21.9896 9.27672 21.9963 9.8471 21.9984 10.9725L21.9992 11.7182C21.9993 11.8093 21.9993 11.9033 21.9993 12.0003L21.9992 12.2824L21.9986 13.0281C21.9967 14.1535 21.9908 14.7238 21.9761 15.2166L21.9697 15.4107C21.9618 15.6349 21.9518 15.8561 21.9393 16.1228C21.8901 17.1869 21.7209 17.9128 21.4743 18.5503C21.2201 19.2094 20.8759 19.7661 20.3209 20.3219C19.7651 20.8769 19.2059 21.2203 18.5493 21.4753C17.9118 21.7219 17.1859 21.8903 16.1218 21.9403C15.8551 21.9522 15.6339 21.9618 15.4097 21.9697L15.2156 21.976C14.7228 21.9906 14.1525 21.9973 13.0271 21.9994L12.2814 22.0002C12.1903 22.0003 12.0963 22.0003 11.9993 22.0003L11.7172 22.0002L10.9715 21.9996C9.84612 21.9977 9.27574 21.9918 8.78299 21.9771L8.58891 21.9707C8.36466 21.9628 8.14346 21.9528 7.8768 21.9403C6.81263 21.8911 6.08763 21.7219 5.4493 21.4753C4.79096 21.2211 4.23346 20.8769 3.67763 20.3219C3.1218 19.7661 2.7793 19.2069 2.5243 18.5503C2.2768 17.9128 2.1093 17.1869 2.0593 16.1228C2.04742 15.8561 2.03773 15.6349 2.02988 15.4107L2.02359 15.2166C2.00896 14.7238 2.00229 14.1535 2.00013 13.0281L2 10.9725C2.00186 9.8471 2.00781 9.27672 2.02248 8.78397L2.02883 8.58989C2.0368 8.36564 2.0468 8.14444 2.0593 7.87778C2.10846 6.81278 2.2768 6.08778 2.5243 5.45028C2.77846 4.79194 3.1218 4.23444 3.67763 3.67861C4.23346 3.12278 4.7918 2.78028 5.4493 2.52528C6.0868 2.27778 6.8118 2.11028 7.8768 2.06028C8.14346 2.0484 8.36466 2.03871 8.58891 2.03086L8.78299 2.02457C9.27574 2.00994 9.84612 2.00327 10.9715 2.00111L13.0271 2.00098ZM11.9993 7.00028C9.2364 7.00028 6.9993 9.23981 6.9993 12.0003C6.9993 14.7632 9.23883 17.0003 11.9993 17.0003C14.7622 17.0003 16.9993 14.7607 16.9993 12.0003C16.9993 9.23738 14.7597 7.00028 11.9993 7.00028ZM11.9993 9.00028C13.6562 9.00028 14.9993 10.3429 14.9993 12.0003C14.9993 13.6572 13.6566 15.0003 11.9993 15.0003C10.3424 15.0003 8.9993 13.6576 8.9993 12.0003C8.9993 10.3434 10.3419 9.00028 11.9993 9.00028ZM17.2493 5.50028C16.56 5.50028 15.9993 6.06018 15.9993 6.74943C15.9993 7.43867 16.5592 7.99944 17.2493 7.99944C17.9385 7.99944 18.4993 7.43954 18.4993 6.74943C18.4993 6.06018 17.9376 5.49941 17.2493 5.50028Z" fill="#3B3D3B"/>
</svg>
