<svg width="166" height="36" viewBox="0 0 166 36" fill="none" xmlns="http://www.w3.org/2000/svg">
<mask id="mask0_205_7102" style="mask-type:luminance" maskUnits="userSpaceOnUse" x="0" y="0" width="166" height="36">
<path d="M165.91 0H0.328125V35.7789H165.91V0Z" fill="white"/>
</mask>
<g mask="url(#mask0_205_7102)">
<path d="M40.5898 8.23718H43.6001L46.6554 24.5523H47.0328L49.9891 8.23718H54.3773L57.4595 24.5523H57.8339L60.7663 8.23718H63.6508L60.0145 27.2688H55.3778L52.3704 11.636H51.996L49.1115 27.2688H44.352L40.5898 8.23718Z" fill="currentColor"/>
<path d="M68.5365 16.9097C67.8686 17.7058 67.5331 18.8496 67.5331 20.3346C67.5331 21.8196 67.8686 22.9633 68.5365 23.7594C69.2044 24.5588 70.124 24.9551 71.2922 24.9551C72.3945 24.9551 73.2751 24.5523 73.9371 23.7464C74.5961 22.9406 74.9285 21.8033 74.9285 20.3346C74.9285 18.8658 74.5991 17.7286 73.9371 16.9227C73.2781 16.1169 72.3945 15.714 71.2922 15.714C70.1211 15.714 69.2044 16.1136 68.5365 16.9097ZM66.4936 25.5433C65.3495 24.2111 64.7773 22.4759 64.7773 20.3378C64.7773 18.1997 65.3495 16.4645 66.4936 15.1323C67.6379 13.8001 69.0696 13.134 70.7919 13.134C71.8793 13.134 72.8707 13.4783 73.7753 14.1673C74.1587 14.4564 74.5032 14.7912 74.8027 15.1745H74.9285V13.4069H77.5614V27.272H74.9285V25.3678H74.8027C74.5511 25.748 74.2097 26.112 73.7753 26.4564C72.8737 27.181 71.8793 27.5449 70.7919 27.5449C69.0696 27.5449 67.6379 26.8788 66.4936 25.5466V25.5433Z" fill="currentColor"/>
<path d="M80.1914 22.9177H83.0729C83.1898 23.2816 83.3994 23.626 83.6986 23.951C84.316 24.6203 85.1514 24.9583 86.2057 24.9583C87.1259 24.9583 87.7933 24.8056 88.2101 24.4969C88.6262 24.1882 88.8358 23.7982 88.8358 23.3271C88.8358 23.1646 88.8026 23.0151 88.7368 22.8787C88.6711 22.7422 88.5546 22.622 88.3865 22.5115C88.2193 22.401 88.0604 22.3068 87.9106 22.2255C87.7608 22.1443 87.5328 22.0631 87.2333 21.9818C86.9337 21.9006 86.6916 21.8356 86.5052 21.7901C86.323 21.7446 86.0409 21.6764 85.6665 21.5854C85.2896 21.4944 85.0108 21.4327 84.8278 21.3937C82.1563 20.7405 80.8175 19.3466 80.8175 17.2052C80.8175 16.1167 81.2758 15.1647 82.1953 14.349C83.1149 13.5334 84.3252 13.124 85.8287 13.124C87.9164 13.124 89.4799 13.8486 90.5166 15.2979C90.9834 15.9315 91.3013 16.6561 91.4685 17.4717H88.7127C88.5779 17.111 88.3957 16.8186 88.1619 16.6008C87.5777 16.003 86.7989 15.704 85.8312 15.704C85.0799 15.704 84.5166 15.8503 84.1396 16.1395C83.7619 16.4287 83.5763 16.7926 83.5763 17.228C83.5763 17.3905 83.6088 17.5399 83.6754 17.6764C83.7411 17.8128 83.8576 17.9331 84.0257 18.0436C84.1929 18.1508 84.3552 18.2418 84.5132 18.3165C84.6722 18.388 84.8943 18.466 85.1789 18.5472C85.4635 18.6285 85.7056 18.6935 85.9061 18.739C86.1075 18.7844 86.3854 18.8461 86.7449 18.9307C87.1043 19.0119 87.383 19.0801 87.5836 19.1354C90.2553 19.7885 91.595 21.1825 91.595 23.3238C91.595 24.4838 91.1157 25.4749 90.1538 26.3002C89.192 27.1256 87.8773 27.5383 86.2057 27.5383C84.0348 27.5383 82.372 26.7681 81.2188 25.2279C80.7006 24.5196 80.3592 23.7495 80.1914 22.9177Z" fill="currentColor"/>
<path d="M93.3516 15.9869V13.4037H94.8551V10.4111H97.4886V13.4037H101.374V15.9869H97.4886V24.6856H101.499V27.2688H94.8551V15.9869H93.3516Z" fill="currentColor"/>
<path d="M106.255 18.9763H113.774C113.624 18.0698 113.225 17.2996 112.584 16.6661C111.94 16.0324 111.084 15.714 110.015 15.714C109.113 15.714 108.31 16.0096 107.609 16.5978C106.908 17.1859 106.456 17.9788 106.255 18.9763ZM105.39 25.4621C104.128 24.0746 103.496 22.3655 103.496 20.3378C103.496 18.3102 104.125 16.601 105.39 15.2135C106.65 13.826 108.193 13.134 110.015 13.134C111.835 13.134 113.378 13.826 114.639 15.2135C115.9 16.601 116.532 18.3102 116.532 20.3378V21.2899H106.13C106.33 22.4304 106.789 23.3305 107.507 23.9803C108.226 24.6335 109.062 24.9584 110.015 24.9584C111.183 24.9584 112.12 24.64 112.821 24.0064C113.138 23.7529 113.414 23.4344 113.647 23.0543H116.403C116.053 23.9413 115.609 24.6952 115.073 25.3126C113.705 26.7976 112.015 27.5417 110.011 27.5417C108.19 27.5417 106.647 26.8495 105.387 25.4621H105.39Z" fill="currentColor"/>
<path d="M119.289 27.2685V9.3125H121.922V24.6853H124.803V27.2685H119.289Z" fill="currentColor"/>
<path d="M129.068 18.9763H136.585C136.436 18.0698 136.038 17.2996 135.396 16.6661C134.752 16.0324 133.896 15.714 132.827 15.714C131.925 15.714 131.122 16.0096 130.421 16.5978C129.72 17.1859 129.268 17.9788 129.068 18.9763ZM128.202 25.4621C126.941 24.0746 126.309 22.3655 126.309 20.3378C126.309 18.3102 126.941 16.601 128.202 15.2135C129.463 13.826 131.006 13.134 132.827 13.134C134.648 13.134 136.19 13.826 137.452 15.2135C138.712 16.601 139.345 18.3102 139.345 20.3378V21.2899H128.945C129.145 22.4304 129.604 23.3305 130.322 23.9803C131.041 24.6335 131.877 24.9584 132.829 24.9584C133.998 24.9584 134.935 24.64 135.636 24.0064C135.954 23.7529 136.229 23.4344 136.463 23.0543H139.219C138.868 23.9413 138.425 24.6952 137.888 25.3126C136.52 26.7976 134.831 27.5417 132.827 27.5417C131.006 27.5417 129.463 26.8495 128.202 25.4621Z" fill="currentColor"/>
<path d="M141.223 22.9177H144.104C144.221 23.2816 144.43 23.626 144.73 23.951C145.347 24.6203 146.183 24.9583 147.237 24.9583C148.157 24.9583 148.824 24.8056 149.241 24.4969C149.657 24.1882 149.867 23.7982 149.867 23.3271C149.867 23.1646 149.835 23.0151 149.768 22.8787C149.702 22.7422 149.586 22.622 149.418 22.5115C149.25 22.401 149.092 22.3068 148.942 22.2255C148.792 22.1443 148.567 22.0631 148.264 21.9818C147.965 21.9006 147.723 21.8356 147.536 21.7901C147.354 21.7446 147.072 21.6764 146.698 21.5854C146.324 21.4944 146.042 21.4327 145.86 21.3937C143.185 20.7405 141.848 19.3466 141.848 17.2052C141.848 16.1167 142.307 15.1647 143.226 14.349C144.146 13.5334 145.356 13.124 146.86 13.124C148.948 13.124 150.511 13.8486 151.548 15.2979C152.015 15.9315 152.332 16.6561 152.5 17.4717H149.745C149.61 17.111 149.427 16.8186 149.193 16.6008C148.609 16.003 147.83 15.704 146.862 15.704C146.111 15.704 145.548 15.8503 145.171 16.1395C144.793 16.4287 144.608 16.7926 144.608 17.228C144.608 17.3905 144.64 17.5399 144.707 17.6764C144.772 17.8128 144.889 17.9331 145.057 18.0436C145.224 18.1508 145.386 18.2418 145.545 18.3165C145.703 18.388 145.926 18.466 146.21 18.5472C146.495 18.6285 146.737 18.6935 146.937 18.739C147.139 18.7844 147.417 18.8461 147.776 18.9307C148.135 19.0119 148.414 19.0801 148.615 19.1354C151.287 19.7885 152.626 21.1825 152.626 23.3238C152.626 24.4838 152.147 25.4749 151.185 26.3002C150.224 27.1256 148.908 27.5383 147.237 27.5383C145.066 27.5383 143.404 26.7681 142.25 25.2279C141.732 24.5196 141.391 23.7495 141.223 22.9177Z" fill="currentColor"/>
<path d="M154.508 22.9177H157.389C157.507 23.2816 157.716 23.626 158.016 23.951C158.632 24.6203 159.469 24.9583 160.523 24.9583C161.442 24.9583 162.11 24.8056 162.526 24.4969C162.943 24.1882 163.153 23.7982 163.153 23.3271C163.153 23.1646 163.12 23.0151 163.054 22.8787C162.988 22.7422 162.871 22.622 162.704 22.5115C162.536 22.401 162.377 22.3068 162.227 22.2255C162.077 22.1443 161.85 22.0631 161.55 21.9818C161.251 21.9006 161.008 21.8356 160.822 21.7901C160.639 21.7446 160.358 21.6764 159.984 21.5854C159.609 21.4944 159.328 21.4327 159.145 21.3937C156.47 20.7405 155.134 19.3466 155.134 17.2052C155.134 16.1167 155.593 15.1647 156.512 14.349C157.432 13.5334 158.642 13.124 160.145 13.124C162.233 13.124 163.797 13.8486 164.833 15.2979C165.301 15.9315 165.618 16.6561 165.786 17.4717H163.03C162.895 17.111 162.712 16.8186 162.479 16.6008C161.895 16.003 161.116 15.704 160.148 15.704C159.396 15.704 158.834 15.8503 158.456 16.1395C158.078 16.4287 157.893 16.7926 157.893 17.228C157.893 17.3905 157.926 17.5399 157.992 17.6764C158.057 17.8128 158.175 17.9331 158.342 18.0436C158.51 18.1508 158.671 18.2418 158.83 18.3165C158.989 18.388 159.211 18.466 159.495 18.5472C159.78 18.6285 160.023 18.6935 160.223 18.739C160.424 18.7844 160.703 18.8461 161.062 18.9307C161.421 19.0119 161.7 19.0801 161.901 19.1354C164.572 19.7885 165.911 21.1825 165.911 23.3238C165.911 24.4838 165.432 25.4749 164.471 26.3002C163.509 27.1256 162.194 27.5383 160.523 27.5383C158.351 27.5383 156.689 26.7681 155.535 25.2279C155.017 24.5196 154.676 23.7495 154.508 22.9177Z" fill="currentColor"/>
<path fill-rule="evenodd" clip-rule="evenodd" d="M0.328125 17.7839C0.328125 17.8196 0.328125 17.8521 0.328125 17.8878C0.328125 17.9236 0.328125 17.9593 0.328125 17.9918C0.379045 27.7886 7.69062 35.7204 16.7215 35.7756C14.7087 35.7204 13.0942 33.9332 13.0942 31.7367C13.0942 29.5076 14.7626 27.6977 16.8174 27.6977C11.8331 27.6977 7.79247 23.3273 7.77449 17.9268C7.77449 17.9268 7.77449 17.9008 7.77449 17.8878C7.77449 17.8878 7.77449 17.8619 7.77449 17.8488C7.75353 15.636 6.09412 13.8488 4.05131 13.8488C2.02647 13.8488 0.379045 15.6003 0.328125 17.7839Z" fill="url(#paint0_linear_205_7102)"/>
<path fill-rule="evenodd" clip-rule="evenodd" d="M16.8169 27.6977C14.7591 27.6977 13.0938 29.5076 13.0938 31.7367C13.0938 33.9657 14.7083 35.7204 16.7211 35.7757C16.7541 35.7757 16.787 35.7757 16.8169 35.7757C16.8499 35.7757 16.8798 35.7757 16.9128 35.7757C25.9437 35.7204 33.2553 27.7886 33.3062 17.9918C33.2553 20.1753 31.6078 21.9268 29.583 21.9268C27.5282 21.9268 25.8598 20.1202 25.8598 17.8878C25.8598 23.3045 21.8102 27.6977 16.8169 27.6977Z" fill="url(#paint1_linear_205_7102)"/>
<path fill-rule="evenodd" clip-rule="evenodd" d="M20.5427 4.03897C20.5427 6.2583 18.8953 8.05845 16.8555 8.07795C21.8336 8.09745 25.8623 12.4808 25.8623 17.8878C25.8623 20.1202 27.5307 21.9268 29.5855 21.9268C31.6104 21.9268 33.2578 20.1754 33.3088 17.9918C33.3088 17.9561 33.3088 17.9203 33.3088 17.8878C33.3088 17.8521 33.3088 17.8196 33.3088 17.7838C33.2578 7.98697 25.9462 0.0584888 16.9153 0C18.9282 0.0552394 20.5427 1.8424 20.5427 4.03897Z" fill="url(#paint2_linear_205_7102)"/>
<path fill-rule="evenodd" clip-rule="evenodd" d="M16.7215 0C7.69062 0.0584888 0.379045 7.98697 0.328125 17.7838C0.379045 15.6002 2.02647 13.8488 4.05131 13.8488C6.09412 13.8488 7.75353 15.636 7.7745 17.8488C7.79247 12.4613 11.8151 8.09745 16.7814 8.07795C16.7814 8.07795 16.8054 8.07795 16.8174 8.07795C16.8174 8.07795 16.8413 8.07795 16.8533 8.07795C18.8931 8.05845 20.5405 6.2583 20.5405 4.03897C20.5405 1.81965 18.9261 0.0584888 16.9132 0C16.8803 0 16.8503 0 16.8174 0C16.7844 0 16.7545 0 16.7215 0Z" fill="url(#paint3_linear_205_7102)"/>
</g>
<defs>
<linearGradient id="paint0_linear_205_7102" x1="-1.1368" y1="10.9016" x2="-1.1368" y2="40.7864" gradientUnits="userSpaceOnUse">
<stop stop-color="#45B549"/>
<stop offset="1" stop-color="#098342"/>
</linearGradient>
<linearGradient id="paint1_linear_205_7102" x1="-0.263504" y1="29.4936" x2="26.9541" y2="29.4936" gradientUnits="userSpaceOnUse">
<stop stop-color="#45B549"/>
<stop offset="1" stop-color="#098342"/>
</linearGradient>
<linearGradient id="paint2_linear_205_7102" x1="16.3363" y1="28.4152" x2="16.3363" y2="-0.808087" gradientUnits="userSpaceOnUse">
<stop stop-color="#45B549"/>
<stop offset="1" stop-color="#098342"/>
</linearGradient>
<linearGradient id="paint3_linear_205_7102" x1="15.3821" y1="10.5404" x2="-11.6007" y2="10.5404" gradientUnits="userSpaceOnUse">
<stop stop-color="#45B549"/>
<stop offset="1" stop-color="#098342"/>
</linearGradient>
</defs>
</svg>
