<svg width="24" height="24" viewBox="0 0 24 24" fill="none" xmlns="http://www.w3.org/2000/svg">
<path d="M12 22C6.47715 22 2 17.5228 2 12C2 6.47715 6.47715 2 12 2C17.5228 2 22 6.47715 22 12C22 17.5228 17.5228 22 12 22ZM8.89015 13.1708L8.9028 13.1628C9.48253 15.0767 9.77239 16.0337 9.77239 16.0337C9.88466 16.3442 10.039 16.3996 10.2263 16.3743C10.4135 16.3489 10.5129 16.2476 10.6351 16.1297C10.6351 16.1297 11.0314 15.7472 11.824 14.9823L14.3749 16.8698C14.8397 17.1266 15.1753 16.9941 15.2907 16.4377L16.9485 8.61641C17.1315 7.88842 16.8105 7.59644 16.246 7.82754L6.51299 11.5871C5.84898 11.854 5.85219 12.2255 6.3921 12.3911L8.89015 13.1708Z" fill="#3B3D3B"/>
</svg>
